HIERARCHY
ROOT Hips
{
	OFFSET 0.000000 0.000000 0.000000
	CHANNELS 6 Xposition Yposition Zposition Zrotation Yrotation Xrotation 
	JOINT LowerBack
	{
		OFFSET 0.000000 0.000000 0.000000
		CHANNELS 3 Zrotation Yrotation Xrotation
		JOINT Spine
		{
			OFFSET 0.028270 2.035590 -0.193380
			CHANNELS 3 Zrotation Yrotation Xrotation
			JOINT Spine1
			{
				OFFSET 0.056720 2.048850 -0.042750
				CHANNELS 3 Zrotation Yrotation Xrotation
				JOINT Neck
				{
					OFFSET 0.000000 0.000000 0.000000
					CHANNELS 3 Zrotation Yrotation Xrotation
					JOINT Neck1
					{
						OFFSET -0.054170 1.746240 0.172020
						CHANNELS 3 Zrotation Yrotation Xrotation
						JOINT Head
						{
							OFFSET 0.104070 1.761360 -0.123970
							CHANNELS 3 Zrotation Yrotation Xrotation
							End Site
							{
								OFFSET 0.000000 0.000000 0.000000
							}
						}
					}
				}
				JOINT LeftShoulder
				{
					OFFSET 0.000000 0.000000 0.000000
					CHANNELS 3 Zrotation Yrotation Xrotation
					JOINT LeftArm
					{
						OFFSET 3.362410 1.200890 -0.311210
						CHANNELS 3 Zrotation Yrotation Xrotation
						JOINT LeftForeArm
						{
							OFFSET 4.983000 -0.000000 -0.000000
							CHANNELS 3 Zrotation Yrotation Xrotation
							JOINT LeftHand
							{
								OFFSET 3.483560 -0.000000 -0.000000
								CHANNELS 3 Zrotation Yrotation Xrotation
								JOINT LeftFingerBase
								{
									OFFSET 0.000000 0.000000 0.000000
									CHANNELS 3 Zrotation Yrotation Xrotation
									JOINT LeftHandIndex1
									{
										OFFSET 0.715260 -0.000000 -0.000000
										CHANNELS 3 Zrotation Yrotation Xrotation
										End Site
										{
											OFFSET 0.000000 0.000000 0.000000
										}
									}
								}
								JOINT LThumb
								{
									OFFSET 0.000000 0.000000 0.000000
									CHANNELS 3 Zrotation Yrotation Xrotation
									End Site
									{
										OFFSET 0.000000 0.000000 0.000000
									}
								}
							}
						}
					}
				}
				JOINT RightShoulder
				{
					OFFSET 0.000000 0.000000 0.000000
					CHANNELS 3 Zrotation Yrotation Xrotation
					JOINT RightArm
					{
						OFFSET -3.136600 1.374050 -0.404650
						CHANNELS 3 Zrotation Yrotation Xrotation
						JOINT RightForeArm
						{
							OFFSET -5.241900 -0.000000 -0.000000
							CHANNELS 3 Zrotation Yrotation Xrotation
							JOINT RightHand
							{
								OFFSET -3.444170 -0.000000 -0.000000
								CHANNELS 3 Zrotation Yrotation Xrotation
								JOINT RightFingerBase
								{
									OFFSET 0.000000 0.000000 0.000000
									CHANNELS 3 Zrotation Yrotation Xrotation
									JOINT RightHandIndex1
									{
										OFFSET -0.622530 -0.000000 -0.000000
										CHANNELS 3 Zrotation Yrotation Xrotation
										End Site
										{
											OFFSET 0.000000 0.000000 0.000000
										}
									}
								}
								JOINT RThumb
								{
									OFFSET 0.000000 0.000000 0.000000
									CHANNELS 3 Zrotation Yrotation Xrotation
									End Site
									{
										OFFSET 0.000000 0.000000 0.000000
									}
								}
							}
						}
					}
				}
			}
		}
	}
}
}
MOTION
Frames: 18
Frame Time: 0.008333
1.782140 17.443967 -0.612995 134.112623 -85.872811 -124.004333 -3.940606 -2.328910 -4.511059 -1.465155 -2.194184 -3.492970 -6.541694 -2.295945 1.272227 9.945310 -8.888331 -6.812468 -3.446591 -0.278453 0.233165 0.000000 0.000000 0.000000 -1.243073 7.468722 1.154749 -67.798893 -0.776485 5.049309 -3.661490 -21.506558 0.007507 4.343971 -4.136837 -0.160867 -0.105520 0.018061 -0.000000 0.000000 0.000000 0.000000 0.000000 0.000000 0.000000 15.612756 -6.529118 0.076516 76.447289 8.670133 -5.291265 3.333837 19.426850 0.016875 0.557260 10.196594 0.043810 0.081116 -0.116646 -0.000000 0.000000 0.000000 0.000000 0.000000 0.000000 0.000000 
1.831210 17.444095 -0.649700 131.229947 -85.798525 -121.382898 -4.117222 -2.315241 -4.119663 -1.502187 -2.157607 -3.430541 -6.518883 -2.257217 1.217570 9.823695 -8.729713 -6.773940 -3.432610 -0.276898 0.237818 0.000000 0.000000 0.000000 -1.296175 7.362155 1.204145 -67.684825 -1.036122 4.908589 -3.685111 -21.326907 0.007355 4.247452 -4.090382 -0.155569 -0.105731 0.019507 -0.000000 0.000000 0.000000 0.000000 0.000000 0.000000 0.000000 15.409629 -6.359351 0.100669 76.739685 8.810228 -5.387207 3.311555 19.294351 0.016477 0.549333 10.044823 0.042498 0.080230 -0.117320 -0.000000 0.000000 0.000000 0.000000 0.000000 0.000000 0.000000 
1.882345 17.442200 -0.682653 128.465378 -85.728346 -118.910431 -4.261635 -2.281051 -3.675564 -1.535159 -2.103215 -3.361702 -6.498127 -2.200034 1.151311 9.698114 -8.569855 -6.741077 -3.422596 -0.275502 0.240283 0.000000 0.000000 0.000000 -1.371081 7.228018 1.256966 -67.596319 -1.334279 4.770751 -3.703509 -21.150396 0.007198 4.174691 -4.063401 -0.152073 -0.105684 0.021181 -0.000000 0.000000 0.000000 0.000000 0.000000 0.000000 0.000000 15.217852 -6.174750 0.136005 76.963977 8.945613 -5.393269 3.289273 19.234230 0.016093 0.549838 9.895059 0.042086 0.079279 -0.118185 -0.000000 0.000000 0.000000 0.000000 0.000000 0.000000 0.000000 
1.934804 17.438537 -0.711849 125.809652 -85.665717 -116.573324 -4.374383 -2.227323 -3.186016 -1.563892 -2.032134 -3.287687 -6.480274 -2.125689 1.073799 9.573153 -8.405996 -6.710820 -3.417196 -0.274363 0.241401 0.000000 0.000000 0.000000 -1.462129 7.065718 1.312090 -67.537610 -1.661097 4.634316 -3.716054 -20.977262 0.007041 4.133001 -4.058842 -0.150477 -0.105368 0.023037 -0.000000 0.000000 0.000000 0.000000 0.000000 0.000000 0.000000 15.043793 -5.973835 0.181513 77.113790 9.069860 -5.312470 3.267548 19.243499 0.015751 0.560360 9.762797 0.042475 0.078252 -0.119248 -0.000000 0.000000 0.000000 0.000000 0.000000 0.000000 0.000000 
1.987930 17.433391 -0.737527 123.259729 -85.611935 -114.365780 -4.458212 -2.156060 -2.660792 -1.588527 -1.946233 -3.209870 -6.465769 -2.036212 0.986642 9.453383 -8.237152 -6.680734 -3.416582 -0.273539 0.241886 0.000000 0.000000 0.000000 -1.563358 6.880247 1.367904 -67.511533 -2.006941 4.498805 -3.722478 -20.807047 0.006885 4.126476 -4.077758 -0.150982 -0.104788 0.025020 -0.000000 0.000000 0.000000 0.000000 0.000000 0.000000 0.000000 14.892662 -5.757413 0.235302 77.186821 9.181036 -5.151294 3.246830 19.310644 0.015465 0.577225 9.662542 0.043565 0.077178 -0.120502 -0.000000 0.000000 0.000000 0.000000 0.000000 0.000000 0.000000 
2.040909 17.427211 -0.760083 120.813067 -85.563938 -112.279881 -4.520342 -2.070352 -2.112142 -1.610036 -1.848055 -3.129549 -6.454548 -1.934280 0.893599 9.343841 -8.070499 -6.650415 -3.420403 -0.273033 0.241954 0.000000 0.000000 0.000000 -1.668246 6.678968 1.421834 -67.519785 -2.359824 4.362038 -3.722791 -20.642463 0.006729 4.155508 -4.119032 -0.153588 -0.103954 0.027048 -0.000000 0.000000 0.000000 0.000000 0.000000 0.000000 0.000000 14.770166 -5.535776 0.295093 77.183553 9.288327 -4.904334 3.227586 19.412663 0.015246 0.588641 9.607025 0.044358 0.076168 -0.121917 -0.000000 0.000000 0.000000 0.000000 0.000000 0.000000 0.000000 
2.092906 17.420439 -0.780043 118.489864 -85.517876 -110.330670 -4.567728 -1.973736 -1.553627 -1.629400 -1.740608 -3.048939 -6.446654 -1.823108 0.795994 9.247477 -7.897401 -6.615565 -3.428395 -0.272893 0.242894 0.000000 0.000000 0.000000 -1.770187 6.470310 1.472810 -67.563004 -2.703908 4.225010 -3.717387 -20.487419 0.006572 4.217265 -4.179438 -0.158195 -0.102895 0.029048 -0.000000 0.000000 0.000000 0.000000 0.000000 0.000000 0.000000 14.676765 -5.302441 0.358229 77.112638 9.383781 -4.606171 3.209979 19.533902 0.015093 0.592709 9.601581 0.044752 0.075222 -0.123462 0.000000 0.000000 0.000000 0.000000 0.000000 0.000000 0.000000 
2.143198 17.413538 -0.798067 116.304005 -85.467148 -108.527614 -4.611315 -1.870424 -0.998567 -1.648426 -1.627301 -2.969723 -6.441914 -1.706233 0.696957 9.168093 -7.718762 -6.575112 -3.439995 -0.273110 0.245149 0.000000 0.000000 0.000000 -1.863257 6.264771 1.519105 -67.639295 -3.024382 4.089177 -3.707006 -20.348097 0.006412 4.305512 -4.253765 -0.164303 -0.101646 0.030927 -0.000000 0.000000 0.000000 0.000000 0.000000 0.000000 0.000000 14.615128 -5.061058 0.421980 76.984036 9.471291 -4.274131 3.193999 19.652257 0.014996 0.581390 9.646270 0.044047 0.074401 -0.125075 0.000000 0.000000 0.000000 0.000000 0.000000 0.000000 0.000000 
2.191027 17.406933 -0.814845 114.272386 -85.404102 -106.880346 -4.662673 -1.764995 -0.460119 -1.669074 -1.511955 -2.893498 -6.439954 -1.587572 0.599942 9.109092 -7.539320 -6.529263 -3.454476 -0.273649 0.248849 0.000000 0.000000 0.000000 -1.942378 6.069938 1.559090 -67.745506 -3.303863 3.955383 -3.692545 -20.235787 0.006250 4.410311 -4.335117 -0.171511 -0.100245 0.032585 -0.000000 0.000000 0.000000 0.000000 0.000000 0.000000 0.000000 14.587579 -4.819539 0.484131 76.808714 9.559904 -3.919235 3.179633 19.744544 0.014938 0.546266 9.735476 0.041544 0.073784 -0.126673 0.000000 0.000000 0.000000 0.000000 0.000000 0.000000 0.000000 
2.235802 17.400924 -0.830995 112.415110 -85.322373 -105.402262 -4.732108 -1.661678 0.050614 -1.693148 -1.398221 -2.821811 -6.440581 -1.470860 0.507185 9.072564 -7.359294 -6.477895 -3.471239 -0.274484 0.254194 0.000000 0.000000 0.000000 -2.003822 5.892498 1.592130 -67.877019 -3.526390 3.827554 -3.675111 -20.161803 0.006089 4.520518 -4.415873 -0.178920 -0.098737 0.033938 -0.000000 0.000000 0.000000 0.000000 0.000000 0.000000 0.000000 14.594586 -4.580391 0.542860 76.600700 9.652775 -3.563724 3.166725 19.794494 0.014899 0.486351 9.856786 0.036841 0.073382 -0.128170 0.000000 0.000000 0.000000 0.000000 0.000000 0.000000 0.000000 
2.277276 17.395729 -0.847045 110.744609 -85.216478 -104.102181 -4.827665 -1.564271 0.525004 -1.722039 -1.289532 -2.755858 -6.443520 -1.359565 0.420423 9.059466 -7.177800 -6.421638 -3.489692 -0.275572 0.261147 0.000000 0.000000 0.000000 -2.046004 5.740571 1.618241 -68.027816 -3.683217 3.716494 -3.655979 -20.134550 0.005935 4.624969 -4.488789 -0.186028 -0.097183 0.034928 -0.000000 0.000000 0.000000 0.000000 0.000000 0.000000 0.000000 14.635321 -4.344080 0.596452 76.374003 9.752285 -3.230224 3.154962 19.792743 0.014859 0.404915 9.994876 0.030139 0.073161 -0.129487 0.000000 0.000000 0.000000 0.000000 0.000000 0.000000 0.000000 
2.315104 17.391401 -0.863240 109.279783 -85.084779 -102.991049 -4.952063 -1.475682 0.954968 -1.756090 -1.188826 -2.696957 -6.448215 -1.256666 0.340633 9.068704 -7.001709 -6.362029 -3.509156 -0.276864 0.269504 0.000000 0.000000 0.000000 -2.070026 5.609132 1.637290 -68.192795 -3.753254 3.623050 -3.635721 -20.172710 0.005794 4.711055 -4.546946 -0.191836 -0.095595 0.035476 -0.000000 0.000000 0.000000 0.000000 0.000000 0.000000 0.000000 14.707013 -4.119042 0.645025 76.140430 9.866799 -2.931584 3.144657 19.730787 0.014805 0.308748 10.129322 0.021937 0.073107 -0.130552 0.000000 0.000000 0.000000 0.000000 0.000000 0.000000 0.000000 
2.349692 17.387864 -0.880000 107.994800 -84.919419 -102.049921 -5.116658 -1.397827 1.349626 -1.797603 -1.097376 -2.643242 -6.454898 -1.163290 0.268422 9.101809 -6.829230 -6.301471 -3.529399 -0.278287 0.278405 0.000000 0.000000 0.000000 -2.074783 5.507626 1.650822 -68.364502 -3.750574 3.568879 -3.615861 -20.271234 0.005668 4.772301 -4.583619 -0.195844 -0.094046 0.035605 -0.000000 0.000000 0.000000 0.000000 0.000000 0.000000 0.000000 14.811287 -3.903377 0.687902 75.908624 9.998435 -2.668883 3.134444 19.611026 0.014720 0.197595 10.254037 0.012034 0.073163 -0.131350 0.000000 0.000000 0.000000 0.000000 0.000000 0.000000 0.000000 
2.380784 17.384921 -0.896881 106.934687 -84.730849 -101.312182 -5.305497 -1.331234 1.697686 -1.843089 -1.016910 -2.597187 -6.462363 -1.081271 0.202646 9.151030 -6.664391 -6.240390 -3.549550 -0.279802 0.288090 0.000000 0.000000 0.000000 -2.070329 5.423975 1.659347 -68.539120 -3.651583 3.554995 -3.595956 -20.448707 0.005566 4.799634 -4.597770 -0.197450 -0.092509 0.035251 -0.000000 0.000000 0.000000 0.000000 0.000000 0.000000 0.000000 14.935409 -3.700842 0.726316 75.688684 10.147018 -2.471310 3.125787 19.439786 0.014607 0.093766 10.344039 0.002632 0.073235 -0.131860 0.000000 0.000000 0.000000 0.000000 0.000000 0.000000 0.000000 
2.409042 17.382333 -0.914119 106.060141 -84.512758 -100.750102 -5.527427 -1.275702 2.016072 -1.894448 -0.946646 -2.555754 -6.470921 -1.009630 0.142638 9.217238 -6.510795 -6.181658 -3.569620 -0.281343 0.297479 0.000000 0.000000 0.000000 -2.055965 5.357647 1.664357 -68.710729 -3.471481 3.595399 -3.576802 -20.697632 0.005489 4.790733 -4.587363 -0.196556 -0.091007 0.034451 -0.000000 0.000000 0.000000 0.000000 0.000000 0.000000 0.000000 15.081786 -3.514306 0.761156 75.482641 10.317575 -2.321708 3.117335 19.225847 0.014457 -0.005572 10.401280 -0.006472 0.073291 -0.132130 0.000000 0.000000 0.000000 0.000000 0.000000 0.000000 0.000000 
2.434794 17.379821 -0.931580 105.358607 -84.266943 -100.354204 -5.779776 -1.230052 2.312744 -1.951155 -0.885601 -2.517702 -6.480374 -0.947287 0.087366 9.297906 -6.375368 -6.127323 -3.589391 -0.282860 0.305946 0.000000 0.000000 0.000000 -2.035081 5.299754 1.666571 -68.875766 -3.212772 3.694426 -3.558276 -21.015824 0.005439 4.744821 -4.554994 -0.193262 -0.089514 0.033209 -0.000000 0.000000 0.000000 0.000000 0.000000 0.000000 0.000000 15.247610 -3.350097 0.793927 75.292049 10.513812 -2.209091 3.108918 18.979975 0.014274 -0.096844 10.424008 -0.014976 0.073305 -0.132213 0.000000 0.000000 0.000000 0.000000 0.000000 0.000000 0.000000 
2.458376 17.377094 -0.948749 104.841375 -84.005216 -100.136355 -6.045087 -1.191906 2.589047 -2.009628 -0.832404 -2.483754 -6.490325 -0.892933 0.032916 9.385166 -6.246946 -6.074569 -3.608709 -0.284373 0.314317 0.000000 0.000000 0.000000 -2.017661 5.243804 1.668010 -69.031893 -2.878753 3.860409 -3.539752 -21.395762 0.005414 4.666029 -4.506731 -0.187967 -0.088003 0.031559 -0.000000 0.000000 0.000000 0.000000 0.000000 0.000000 0.000000 15.420142 -3.194439 0.825569 75.120805 10.716292 -2.168583 3.100916 18.726687 0.014067 -0.161302 10.408233 -0.020880 0.073125 -0.132196 0.000000 0.000000 0.000000 0.000000 0.000000 0.000000 0.000000 
2.480066 17.373987 -0.965581 104.474619 -83.728815 -100.066156 -6.323030 -1.159292 2.855131 -2.069912 -0.785041 -2.452175 -6.501120 -0.844450 -0.021423 9.478422 -6.129119 -6.024515 -3.627725 -0.285864 0.322123 0.000000 0.000000 0.000000 -2.004287 5.185048 1.669256 -69.176450 -2.484208 4.095344 -3.521233 -21.821263 0.005414 4.560373 -4.449137 -0.181272 -0.086455 0.029538 -0.000000 0.000000 0.000000 0.000000 0.000000 0.000000 0.000000 15.599729 -3.050524 0.856973 74.966313 10.923594 -2.181401 3.092692 18.479433 0.013842 -0.203144 10.365081 -0.024585 0.072757 -0.132152 0.000000 0.000000 0.000000 0.000000 0.000000 0.000000 0.000000 
